<?xml version="1.0" encoding="utf-8"?>
<!-- Generator: Adobe Illustrator 25.4.1, SVG Export Plug-In . SVG Version: 6.00 Build 0)  -->
<svg version="1.1" id="Layer_1" xmlns="http://www.w3.org/2000/svg" xmlns:xlink="http://www.w3.org/1999/xlink" x="0px" y="0px"
	 viewBox="0 0 216.7 216.7" style="enable-background:new 0 0 216.7 216.7;" xml:space="preserve">
<style type="text/css">
	.st0{fill:#FFFFFF;}
</style>
<circle cx="108.35" cy="108.35" r="108.35"/>
<g>
	<path class="st0" d="M68.28,190.81c0.08,0.05,0.16,0.11,0.24,0.16l39.5-34.47l28.11-24.53c5.98-5.22,9.22-12.4,9.63-19.74v-0.01
		c0-0.02,0-0.04,0-0.07c0.12-2.27-0.03-4.55-0.46-6.79c-1.57-11.68-7.11-22.44-15.39-29.92c-1.19-1.08-3,0.36-2.21,1.76
		c1.92,3.44,3.02,7.41,3.02,11.64c0,5.58-1.92,10.7-5.12,14.77c-0.06,0.08-0.13,0.15-0.21,0.22l-6.37,5.56l-45.3,39.53l-7.47,6.52
		C55.21,165.08,56.14,182.63,68.28,190.81z"/>
	<path class="st0" d="M125.1,12.58c-0.08-0.05-0.16-0.11-0.24-0.16l-10.93,9.09l-28.1,24.52c-5.98,5.22-9.22,12.4-9.63,19.74v0.01
		c0,0.02,0,0.04,0,0.07c-0.12,2.27,0.03,4.55,0.46,6.79c1.57,11.68,7.11,22.44,15.39,29.92c1.19,1.08,3-0.36,2.21-1.76
		c-1.92-3.44-3.02-7.41-3.02-11.64c0-5.58,1.92-10.7,5.12-14.77c0.06-0.08,0.13-0.15,0.21-0.22l6.37-5.56l16.73-14.15l7.47-6.52
		C138.17,38.31,137.24,20.75,125.1,12.58z"/>
</g>
</svg>
