<?xml version="1.0" encoding="utf-8"?>
<!-- Generator: Adobe Illustrator 25.4.1, SVG Export Plug-In . SVG Version: 6.00 Build 0)  -->
<svg version="1.1" id="Layer_1" xmlns="http://www.w3.org/2000/svg" xmlns:xlink="http://www.w3.org/1999/xlink" x="0px" y="0px"
	 viewBox="0 0 216.7 216.7" style="enable-background:new 0 0 216.7 216.7;" xml:space="preserve">
<path d="M108.3,0C48.5,0,0,48.5,0,108.4c0,59.8,48.5,108.3,108.3,108.3c59.8,0,108.4-48.5,108.4-108.3C216.7,48.5,168.2,0,108.3,0z
	 M76.2,65.9C76.2,65.8,76.2,65.8,76.2,65.9L76.2,65.9c0.4-7.4,3.6-14.6,9.6-19.8l28.1-24.5l10.9-9.1c0.1,0,0.2,0.1,0.2,0.2
	c12.1,8.2,13.1,25.7,2,35.4l-7.5,6.5l-16.7,14.1l-6.4,5.6c-0.1,0.1-0.2,0.1-0.2,0.2c-3.2,4.1-5.1,9.2-5.1,14.8c0,4.2,1.1,8.2,3,11.6
	c0.8,1.4-1,2.8-2.2,1.8c-8.3-7.5-13.8-18.2-15.4-29.9C76.2,70.4,76.1,68.1,76.2,65.9z M145.8,112.2
	C145.8,112.2,145.8,112.2,145.8,112.2L145.8,112.2c-0.4,7.4-3.7,14.6-9.6,19.8L108,156.5L68.5,191c-0.1-0.1-0.2-0.1-0.2-0.2
	c-12.1-8.2-13.1-25.7-2-35.4l7.5-6.5l45.3-39.5l6.4-5.6c0.1-0.1,0.1-0.1,0.2-0.2c3.2-4.1,5.1-9.2,5.1-14.8c0-4.2-1.1-8.2-3-11.6
	c-0.8-1.4,1-2.8,2.2-1.8c8.3,7.5,13.8,18.2,15.4,29.9C145.7,107.6,145.9,109.9,145.8,112.2z"/>
</svg>
